<mxfile host="app.diagrams.net" modified="2024-03-23T09:48:49.234Z" agent="Mozilla/5.0 (Macintosh; Intel Mac OS X 10_15_7) AppleWebKit/537.36 (KHTML, like Gecko) Chrome/120.0.0.0 Safari/537.36" etag="zYua9AnW_lGXdJm8PLuU" version="24.0.8" type="device">
  <diagram name="PaginÄƒ-1" id="rNx0xSvXsdG-FzxNyTCX">
    <mxGraphModel dx="1242" dy="736" grid="1" gridSize="10" guides="1" tooltips="1" connect="1" arrows="1" fold="1" page="1" pageScale="1" pageWidth="827" pageHeight="1169" math="0" shadow="0">
      <root>
        <mxCell id="0" />
        <mxCell id="1" parent="0" />
        <mxCell id="c4fDAsSGFbjs4r5S7Tv4-25" style="edgeStyle=orthogonalEdgeStyle;rounded=0;orthogonalLoop=1;jettySize=auto;html=1;exitX=0.5;exitY=1;exitDx=0;exitDy=0;entryX=0.5;entryY=0;entryDx=0;entryDy=0;" edge="1" parent="1" source="c4fDAsSGFbjs4r5S7Tv4-1" target="c4fDAsSGFbjs4r5S7Tv4-3">
          <mxGeometry relative="1" as="geometry">
            <Array as="points">
              <mxPoint x="399" y="280" />
              <mxPoint x="235" y="280" />
            </Array>
          </mxGeometry>
        </mxCell>
        <mxCell id="c4fDAsSGFbjs4r5S7Tv4-26" style="edgeStyle=orthogonalEdgeStyle;rounded=0;orthogonalLoop=1;jettySize=auto;html=1;entryX=0.5;entryY=0;entryDx=0;entryDy=0;" edge="1" parent="1" source="c4fDAsSGFbjs4r5S7Tv4-1" target="c4fDAsSGFbjs4r5S7Tv4-5">
          <mxGeometry relative="1" as="geometry" />
        </mxCell>
        <mxCell id="c4fDAsSGFbjs4r5S7Tv4-27" style="edgeStyle=orthogonalEdgeStyle;rounded=0;orthogonalLoop=1;jettySize=auto;html=1;entryX=0.5;entryY=0;entryDx=0;entryDy=0;" edge="1" parent="1" source="c4fDAsSGFbjs4r5S7Tv4-1" target="c4fDAsSGFbjs4r5S7Tv4-19">
          <mxGeometry relative="1" as="geometry" />
        </mxCell>
        <mxCell id="c4fDAsSGFbjs4r5S7Tv4-28" style="edgeStyle=orthogonalEdgeStyle;rounded=0;orthogonalLoop=1;jettySize=auto;html=1;entryX=0.5;entryY=0;entryDx=0;entryDy=0;" edge="1" parent="1" source="c4fDAsSGFbjs4r5S7Tv4-1" target="c4fDAsSGFbjs4r5S7Tv4-21">
          <mxGeometry relative="1" as="geometry">
            <Array as="points">
              <mxPoint x="399" y="280" />
              <mxPoint x="555" y="280" />
            </Array>
          </mxGeometry>
        </mxCell>
        <mxCell id="c4fDAsSGFbjs4r5S7Tv4-42" value="paths&amp;lt;-" style="edgeLabel;html=1;align=center;verticalAlign=middle;resizable=0;points=[];" vertex="1" connectable="0" parent="c4fDAsSGFbjs4r5S7Tv4-28">
          <mxGeometry x="-0.7422" relative="1" as="geometry">
            <mxPoint as="offset" />
          </mxGeometry>
        </mxCell>
        <mxCell id="c4fDAsSGFbjs4r5S7Tv4-1" value="" style="swimlane;startSize=0;" vertex="1" parent="1">
          <mxGeometry x="304" y="90" width="190" height="110" as="geometry" />
        </mxCell>
        <mxCell id="c4fDAsSGFbjs4r5S7Tv4-2" value="&lt;b&gt;MAIN GOROUTINE&lt;/b&gt;" style="text;html=1;align=center;verticalAlign=middle;resizable=0;points=[];autosize=1;strokeColor=none;fillColor=none;" vertex="1" parent="c4fDAsSGFbjs4r5S7Tv4-1">
          <mxGeometry x="30" y="12" width="130" height="30" as="geometry" />
        </mxCell>
        <mxCell id="c4fDAsSGFbjs4r5S7Tv4-41" value="walkDir()" style="rounded=0;whiteSpace=wrap;html=1;" vertex="1" parent="c4fDAsSGFbjs4r5S7Tv4-1">
          <mxGeometry x="70" y="60" width="50" height="30" as="geometry" />
        </mxCell>
        <mxCell id="c4fDAsSGFbjs4r5S7Tv4-31" style="edgeStyle=orthogonalEdgeStyle;rounded=0;orthogonalLoop=1;jettySize=auto;html=1;entryX=0.5;entryY=0;entryDx=0;entryDy=0;" edge="1" parent="1" source="c4fDAsSGFbjs4r5S7Tv4-3" target="c4fDAsSGFbjs4r5S7Tv4-29">
          <mxGeometry relative="1" as="geometry">
            <Array as="points">
              <mxPoint x="235" y="400" />
              <mxPoint x="402" y="400" />
            </Array>
          </mxGeometry>
        </mxCell>
        <mxCell id="c4fDAsSGFbjs4r5S7Tv4-3" value="" style="swimlane;startSize=0;" vertex="1" parent="1">
          <mxGeometry x="190" y="300" width="90" height="50" as="geometry" />
        </mxCell>
        <mxCell id="c4fDAsSGFbjs4r5S7Tv4-4" value="&lt;b&gt;WORKER1&lt;/b&gt;" style="text;html=1;align=center;verticalAlign=middle;resizable=0;points=[];autosize=1;strokeColor=none;fillColor=none;" vertex="1" parent="c4fDAsSGFbjs4r5S7Tv4-3">
          <mxGeometry x="5" y="10" width="80" height="30" as="geometry" />
        </mxCell>
        <mxCell id="c4fDAsSGFbjs4r5S7Tv4-5" value="" style="swimlane;startSize=0;" vertex="1" parent="1">
          <mxGeometry x="270" y="300" width="90" height="50" as="geometry" />
        </mxCell>
        <mxCell id="c4fDAsSGFbjs4r5S7Tv4-6" value="&lt;b&gt;WORKER2&lt;/b&gt;" style="text;html=1;align=center;verticalAlign=middle;resizable=0;points=[];autosize=1;strokeColor=none;fillColor=none;" vertex="1" parent="c4fDAsSGFbjs4r5S7Tv4-5">
          <mxGeometry x="5" y="10" width="80" height="30" as="geometry" />
        </mxCell>
        <mxCell id="c4fDAsSGFbjs4r5S7Tv4-21" value="" style="swimlane;startSize=0;" vertex="1" parent="1">
          <mxGeometry x="510" y="300" width="90" height="50" as="geometry" />
        </mxCell>
        <mxCell id="c4fDAsSGFbjs4r5S7Tv4-22" value="&lt;b&gt;WORKER20&lt;/b&gt;" style="text;html=1;align=center;verticalAlign=middle;resizable=0;points=[];autosize=1;strokeColor=none;fillColor=none;" vertex="1" parent="c4fDAsSGFbjs4r5S7Tv4-21">
          <mxGeometry y="10" width="90" height="30" as="geometry" />
        </mxCell>
        <mxCell id="c4fDAsSGFbjs4r5S7Tv4-19" value="" style="swimlane;startSize=0;" vertex="1" parent="c4fDAsSGFbjs4r5S7Tv4-21">
          <mxGeometry x="-80" width="90" height="50" as="geometry" />
        </mxCell>
        <mxCell id="c4fDAsSGFbjs4r5S7Tv4-20" value="&lt;b&gt;WORKER19&lt;/b&gt;" style="text;html=1;align=center;verticalAlign=middle;resizable=0;points=[];autosize=1;strokeColor=none;fillColor=none;" vertex="1" parent="c4fDAsSGFbjs4r5S7Tv4-19">
          <mxGeometry y="10" width="90" height="30" as="geometry" />
        </mxCell>
        <mxCell id="c4fDAsSGFbjs4r5S7Tv4-23" value="..." style="rounded=0;whiteSpace=wrap;html=1;" vertex="1" parent="1">
          <mxGeometry x="384" y="310" width="30" height="30" as="geometry" />
        </mxCell>
        <mxCell id="c4fDAsSGFbjs4r5S7Tv4-29" value="" style="swimlane;startSize=0;" vertex="1" parent="1">
          <mxGeometry x="354" y="430" width="95" height="50" as="geometry" />
        </mxCell>
        <mxCell id="c4fDAsSGFbjs4r5S7Tv4-30" value="&lt;b&gt;COLLECTOR&lt;/b&gt;" style="text;html=1;align=center;verticalAlign=middle;resizable=0;points=[];autosize=1;strokeColor=none;fillColor=none;" vertex="1" parent="c4fDAsSGFbjs4r5S7Tv4-29">
          <mxGeometry x="-5" y="10" width="100" height="30" as="geometry" />
        </mxCell>
        <mxCell id="c4fDAsSGFbjs4r5S7Tv4-35" value="" style="edgeStyle=orthogonalEdgeStyle;rounded=0;orthogonalLoop=1;jettySize=auto;html=1;entryX=0.5;entryY=0;entryDx=0;entryDy=0;" edge="1" parent="1" source="c4fDAsSGFbjs4r5S7Tv4-6" target="c4fDAsSGFbjs4r5S7Tv4-29">
          <mxGeometry x="-0.0028" relative="1" as="geometry">
            <Array as="points">
              <mxPoint x="315" y="400" />
              <mxPoint x="402" y="400" />
            </Array>
            <mxPoint as="offset" />
          </mxGeometry>
        </mxCell>
        <mxCell id="c4fDAsSGFbjs4r5S7Tv4-36" style="edgeStyle=orthogonalEdgeStyle;rounded=0;orthogonalLoop=1;jettySize=auto;html=1;entryX=0.5;entryY=0;entryDx=0;entryDy=0;" edge="1" parent="1" source="c4fDAsSGFbjs4r5S7Tv4-19" target="c4fDAsSGFbjs4r5S7Tv4-29">
          <mxGeometry relative="1" as="geometry">
            <Array as="points">
              <mxPoint x="475" y="400" />
              <mxPoint x="402" y="400" />
            </Array>
          </mxGeometry>
        </mxCell>
        <mxCell id="c4fDAsSGFbjs4r5S7Tv4-37" style="edgeStyle=orthogonalEdgeStyle;rounded=0;orthogonalLoop=1;jettySize=auto;html=1;entryX=0.5;entryY=0;entryDx=0;entryDy=0;exitX=0.5;exitY=1;exitDx=0;exitDy=0;" edge="1" parent="1" source="c4fDAsSGFbjs4r5S7Tv4-21" target="c4fDAsSGFbjs4r5S7Tv4-29">
          <mxGeometry relative="1" as="geometry">
            <mxPoint x="555" y="360" as="sourcePoint" />
            <Array as="points">
              <mxPoint x="555" y="400" />
              <mxPoint x="402" y="400" />
            </Array>
          </mxGeometry>
        </mxCell>
        <mxCell id="c4fDAsSGFbjs4r5S7Tv4-43" value="pairs-&amp;gt;" style="edgeLabel;html=1;align=center;verticalAlign=middle;resizable=0;points=[];" vertex="1" connectable="0" parent="c4fDAsSGFbjs4r5S7Tv4-37">
          <mxGeometry x="0.8287" relative="1" as="geometry">
            <mxPoint as="offset" />
          </mxGeometry>
        </mxCell>
        <mxCell id="c4fDAsSGFbjs4r5S7Tv4-45" style="edgeStyle=orthogonalEdgeStyle;rounded=0;orthogonalLoop=1;jettySize=auto;html=1;entryX=1;entryY=0.5;entryDx=0;entryDy=0;" edge="1" parent="1" source="c4fDAsSGFbjs4r5S7Tv4-22" target="c4fDAsSGFbjs4r5S7Tv4-1">
          <mxGeometry relative="1" as="geometry">
            <Array as="points">
              <mxPoint x="710" y="325" />
              <mxPoint x="710" y="145" />
            </Array>
          </mxGeometry>
        </mxCell>
        <mxCell id="c4fDAsSGFbjs4r5S7Tv4-49" value="done&amp;lt;-" style="edgeLabel;html=1;align=center;verticalAlign=middle;resizable=0;points=[];" vertex="1" connectable="0" parent="c4fDAsSGFbjs4r5S7Tv4-45">
          <mxGeometry x="-0.8063" y="2" relative="1" as="geometry">
            <mxPoint as="offset" />
          </mxGeometry>
        </mxCell>
        <mxCell id="c4fDAsSGFbjs4r5S7Tv4-46" style="edgeStyle=orthogonalEdgeStyle;rounded=0;orthogonalLoop=1;jettySize=auto;html=1;entryX=0;entryY=0.5;entryDx=0;entryDy=0;exitX=0;exitY=0.5;exitDx=0;exitDy=0;" edge="1" parent="1" source="c4fDAsSGFbjs4r5S7Tv4-3" target="c4fDAsSGFbjs4r5S7Tv4-1">
          <mxGeometry relative="1" as="geometry">
            <Array as="points">
              <mxPoint x="70" y="325" />
              <mxPoint x="70" y="145" />
            </Array>
          </mxGeometry>
        </mxCell>
        <mxCell id="c4fDAsSGFbjs4r5S7Tv4-47" value="done&amp;lt;-" style="edgeLabel;html=1;align=center;verticalAlign=middle;resizable=0;points=[];" vertex="1" connectable="0" parent="c4fDAsSGFbjs4r5S7Tv4-46">
          <mxGeometry x="-0.779" y="-1" relative="1" as="geometry">
            <mxPoint as="offset" />
          </mxGeometry>
        </mxCell>
      </root>
    </mxGraphModel>
  </diagram>
</mxfile>
